<?xml version="1.0" encoding="UTF-8"?>
<svg id="Layer_2" data-name="Layer 2" xmlns="http://www.w3.org/2000/svg" viewBox="0 0 530.52 135.58">
  <defs>
    <style>
      .cls-1 {
        fill: #fff;
      }
    </style>
  </defs>
  <g id="Layer_1-2" data-name="Layer 1">
    <g id="Layer_1-2" data-name="Layer 1-2">
      <path class="cls-1" d="m0,0l28.21.51c.34,18.24.68,36.48,1.03,54.72,14.05-.05,28.09-.1,42.14-.14,11.12,4.7,22.24,9.4,33.37,14.11-.03,21.98-.07,43.96-.1,65.95-9.16.05-18.32.1-27.48.16-.16-18.55-.32-37.1-.48-55.65-14.79-.13-29.58-.26-44.37-.38-10.6-3.92-21.2-7.84-31.8-11.76C.34,45.01.17,22.5,0,0Z"/>
      <path class="cls-1" d="m.64,73.52v61.24c9.4.17,18.81.34,28.21.51-.13-17.22-.26-34.44-.38-51.65-9.28-3.37-18.55-6.73-27.83-10.1Z"/>
      <path class="cls-1" d="m76.69.38c9.36-.04,18.72-.09,28.09-.13.04,11.89.09,23.78.13,35.67,30.22,11.81,60.45,23.61,90.67,35.42.04,14.11.09,28.21.13,42.32-.32,2.36-1.46,8.44-6.48,13.81-7.05,7.56-16.38,7.94-18.21,7.98-18.23-.15-36.47-.29-54.7-.44.04-7.84.09-15.68.13-23.53,4.34-.05,46.89-.59,48.48-.99.77-.19,1.21-.67,1.22-.67s.4-.42.55-1.08c.24-1.03.44-9.53.52-21.18-30.13-11.89-60.26-23.77-90.39-35.66-.04-17.18-.09-34.35-.13-51.53h-.01Z"/>
      <path class="cls-1" d="m167.55,35.22c-.02-3.47-.04-6.95-.06-10.42.13-.39.03-.81-.25-1.1s-.7-.41-1.09-.3c-18.08.02-36.17.04-54.25.06-.02-7.67-.04-15.34-.06-23.01,20.03-.02,40.06-.04,60.08-.06,2.08-.02,9.2.18,15.71,5.4,5.42,4.35,8.08,9.99,8.07,11.92.09,5.83.17,11.66.26,17.5-9.47,0-18.94,0-28.41.02h0Z"/>
      <path class="cls-1" d="m306.93.43c.09,7.64.17,15.29.26,22.93-24,.06-47.99.11-71.99.17-.18-.01-.95-.04-1.62.51-.54.44-.71.99-.77,1.19-.06,9.97-.11,19.95-.17,29.92,21.17-.03,42.35-.06,63.52-.09-4.62,8.1-9.23,16.2-13.85,24.29-15.85-.06-31.69-.11-47.54-.17-10.46-4.15-20.92-8.3-31.38-12.44.11-15.77.23-31.54.34-47.31.17-2.22,1.93-7.04,6.07-11.42,5.36-5.68,11.83-7.05,14.02-7.42,27.7-.06,55.4-.11,83.1-.17h.01Z"/>
      <path class="cls-1" d="m203.35,73.05c9.8,3.55,19.61,7.1,29.41,10.65.09,8.41.17,16.82.26,25.23,0,.17.06.79.56,1.32.61.64,1.41.64,1.54.64,24.02.14,48.05.28,72.07.43-.04,8.07-.09,16.14-.13,24.21-27.87-.14-55.74-.28-83.62-.43-2.33-.56-8.01-2.25-13-7.42-5.25-5.44-6.64-11.53-7.05-13.85,0-13.6-.03-27.19-.04-40.79h0Z"/>
      <path class="cls-1" d="m314.54,135.01c9.53.08,19.07.15,28.6.23-.25-24.67-.51-49.35-.76-74.02-9.22-4.09-18.43-8.18-27.65-12.27-.06,28.69-.13,57.38-.19,86.07h0Z"/>
      <path class="cls-1" d="m419.45,135.05c-9.51.03-19.03.06-28.54.09-.02-.03-.04-.07-.06-.1-.72-1.21-1.45-2.4-2.17-3.62-15.24-25.42-30.48-50.83-45.73-76.25v.12c-9.45-4.34-18.91-8.67-28.35-13.01-.02-13.85-.04-27.71-.06-41.56,9.46.05,18.92.09,28.38.14.16-.05.32-.09.48-.14,16.14,26.85,32.29,53.69,48.43,80.53,9.07,4.09,18.15,8.15,27.22,12.23.13,13.86.26,27.71.39,41.56h.01Z"/>
      <path class="cls-1" d="m419.32.66c-9.53-.06-19.07-.13-28.6-.19.43,24.81.85,49.62,1.28,74.43,9.08,3.88,18.16,7.76,27.23,11.63.03-28.62.06-57.25.09-85.87Z"/>
      <path class="cls-1" d="m530.1,113.46c.06-31.93.16-63.86.22-95.79-.35-3.05-1.49-8.5-6.22-12.51-4.98-4.21-11.42-4.99-15.23-4.93-21.19.38-42.35.73-63.53,1.1v.26c-.7,0-1.43.03-2.13.03-1.52.26-7.58,1.45-11.99,6.36-3.87,4.32-4.09,8.97-4.06,10.42-.1,31.61-.16,63.22-.25,94.83,0,2.84-.41,8.91,4.09,13.93,5.93,6.62,16.81,7.58,22.81,7.72,4.73.06,9.36.09,13.92.15h1.27c15.48.87,28.8.58,38.09-.03,9.96-.67,15.45-1.57,19.32-5.54,5.01-5.17,4.28-12.57,3.68-15.99h.01Zm-20.87-80.75c0,2-1.46,3.69-3.39,4.06h-26.14c-.25,0-.54,0-.76.06-1.94.35-3.39,2.03-3.39,4.06v1.51c0,2.12,1.59,3.86,3.65,4.12.16,0,.32.03.51.03h25.88c2.06.23,3.65,1.97,3.65,4.09v1.54c0,1.97-1.4,3.6-3.24,4.03h-11.86c-.32,0-.6.03-.89.09-1.87.41-3.27,2.06-3.27,4.03v1.57c0,2.09,1.55,3.8,3.62,4.09.16.03.35.03.54.03h11.51c2.03.26,3.58,2,3.58,4.09v1.57c0,2.15-1.65,3.92-3.71,4.12h-25.82c-.16,0-.32,0-.44.03-2.09.2-3.74,1.94-3.74,4.09v1.54c0,2,1.43,3.66,3.33,4.03.29.06.54.09.86.09h26.2c1.9.38,3.33,2.06,3.33,4.06v1.51c0,2.06-1.49,3.74-3.46,4.09h-12.28c-.25,0-.48,0-.7.06-1.97.32-3.46,2.03-3.46,4.06v1.51c0,2.09,1.52,3.8,3.55,4.09.19.03.38.06.6.06h1.74c2,.29,3.55,2.03,3.55,4.09v1.48c0,2.29-1.87,4.12-4.16,4.12h-42.47c-2.28,0-4.16-1.83-4.16-4.12v-1.48c0-2.09,1.52-3.8,3.52-4.09h23.57c.19,0,.41-.03.6-.06,2-.29,3.52-2,3.52-4.09v-1.51c0-2.03-1.49-3.74-3.46-4.06-.22-.06-.44-.06-.67-.06h-23.63c-1.97-.35-3.46-2.03-3.46-4.09v-1.51c0-1.97,1.36-3.63,3.2-4.03h9.99c.35,0,.67-.03.95-.12,1.84-.41,3.2-2.06,3.2-4.01v-1.6c0-2.06-1.49-3.74-3.46-4.06-.22-.06-.44-.09-.7-.09h-9.74c-1.97-.32-3.46-2.03-3.46-4.06v-1.57c0-2.09,1.55-3.83,3.58-4.09h24.14c.19,0,.38,0,.57-.03,2-.29,3.58-2,3.58-4.09v-1.57c0-1.97-1.4-3.63-3.27-4.03-.29-.06-.57-.09-.89-.09h-24.46c-1.87-.44-3.27-2.06-3.27-4.03v-1.54c0-2.12,1.62-3.86,3.68-4.09h9.58c.19,0,.35-.03.51-.03,2.06-.26,3.65-2,3.65-4.12v-1.51c0-2.03-1.43-3.72-3.36-4.06-.25-.06-.51-.06-.79-.06h-9.86c-1.94-.38-3.39-2.06-3.39-4.06v-1.57c0-2.29,1.87-4.15,4.16-4.15h52.91c2.28,0,4.16,1.86,4.16,4.15v1.57h.04Z"/>
    </g>
  </g>
</svg>